# xmcd
#
# Track frame offsets: 
#        150
#        14670
#        28210
#        38752
#        56260
#        66123
#        85898
#        98453
#        110802
#        123095
#        144790
#        157220
#        169825
#        183450
#        205585
#        218699
#        233069
#        246145
#        258490
#        273297
#
# Disc length: 3869 seconds
#
# Revision: 2
# Processed by: cddbd v1.5.2PL0 Copyright (c) Steve Scherf et al.
# Submitted via: ExactAudioCopyFreeDBPlugin 1.0
#
DISCID=110f1b14
DTITLE=Tom Astor - Highway Dreams - 40 Diesel-Country-Songs Vol. 2 [CD
DTITLE=1)
DYEAR=2012
DGENRE=Country
TTITLE0=Devil
TTITLE1=Six Days On The Road
TTITLE2=Highway Helden
TTITLE3=Mein Freund Charly
TTITLE4=Sicht weg - Gas weg!
TTITLE5=Daddy, wenn ich gross bin fahr' ich Diesel
TTITLE6=Von New York City nach L.A.
TTITLE7=Verdammte Radarfalle
TTITLE8=Trucker sind Partner
TTITLE9=Kameraden der Strasse
TTITLE10=Ich bin wieder auf der Autobahn
TTITLE11=Truck-Stop Mama
TTITLE12=Die Frau mit dem Gurt
TTITLE13=Ich hab' noch Zeit
TTITLE14=Mein Auto kennt schon den Heimweg
TTITLE15=Ich hör' so gerne Cajun Music
TTITLE16=Truck Drivin' Girl
TTITLE17=Zwischen Mitternacht und Morgen
TTITLE18=Ich hab' Hunger auf ein Weib
TTITLE19=Ich steh' am Tresen
EXTD=
EXTT0=
EXTT1=
EXTT2=
EXTT3=
EXTT4=
EXTT5=
EXTT6=
EXTT7=
EXTT8=
EXTT9=
EXTT10=
EXTT11=
EXTT12=
EXTT13=
EXTT14=
EXTT15=
EXTT16=
EXTT17=
EXTT18=
EXTT19=
PLAYORDER=
